<svg width="18" height="18" viewBox="0 0 18 18" fill="none" xmlns="http://www.w3.org/2000/svg">
<g opacity="0.5" clip-path="url(#clip0_105_509)">
<path d="M9.02222 18C4.04444 18 0 13.9556 0 9.02222C0 4.08889 4.04444 0 9.02222 0C14 0 18.0444 4.04444 18.0444 9.02222C18.0444 14 13.9556 18 9.02222 18ZM9.02222 1.33333C4.75555 1.33333 1.33333 4.75556 1.33333 9.02222C1.33333 13.2889 4.75555 16.7111 9.02222 16.7111C13.2889 16.7111 16.7111 13.2889 16.7111 9.02222C16.7111 4.75556 13.2444 1.33333 9.02222 1.33333Z" fill="black"/>
<path d="M8.08888 10.4888C8.08888 9.73326 8.62221 8.9777 9.15554 8.5777C9.68888 8.13326 10.2222 7.55548 10.2222 6.9777C10.2222 6.35548 9.77777 6.04437 9.06666 6.04437C8.35554 6.04437 7.82221 6.44437 7.55554 7.19993L6.04443 6.31104C6.57777 5.02215 7.77777 4.31104 9.15554 4.31104C9.95554 4.31104 10.6222 4.53326 11.1555 4.9777C11.7333 5.42215 12 6.04437 12 6.84437C12 8.75548 9.82221 9.33326 9.82221 10.4888H8.08888ZM8.17777 13.3777C7.73332 12.9333 7.73332 12.2666 8.17777 11.8221C8.62221 11.3777 9.28888 11.3777 9.73332 11.8221C10.1778 12.2666 10.1778 12.9333 9.73332 13.3777C9.28888 13.7777 8.62221 13.7777 8.17777 13.3777Z" fill="black"/>
</g>
<defs>
<clipPath id="clip0_105_509">
<rect width="18" height="18" fill="white"/>
</clipPath>
</defs>
</svg>
