<svg width="493" height="61" viewBox="0 0 493 61" fill="none" xmlns="http://www.w3.org/2000/svg">
<path d="M166.748 21.8442L162.66 28.9007L158.572 21.8442H156.335L161.649 30.7939V36.9038H163.65V30.8154L168.985 21.8442H166.748ZM177.502 35.5484C178.6 34.4512 179.159 33.1174 179.159 31.5254C179.159 29.9334 178.6 28.5995 177.502 27.5023C176.405 26.4051 175.05 25.8673 173.479 25.8673C171.909 25.8673 170.553 26.4051 169.456 27.5023C168.359 28.5995 167.821 29.9334 167.821 31.5254C167.821 33.1174 168.359 34.4512 169.456 35.5484C170.553 36.6456 171.909 37.1835 173.479 37.1835C175.05 37.1835 176.405 36.6456 177.502 35.5484ZM173.479 35.3548C172.425 35.3548 171.522 34.9891 170.79 34.2576C170.059 33.5262 169.693 32.6226 169.693 31.5254C169.693 30.4282 170.059 29.5246 170.79 28.7932C171.522 28.0617 172.425 27.696 173.479 27.696C174.555 27.696 175.459 28.0617 176.19 28.7932C176.921 29.5246 177.287 30.4282 177.287 31.5254C177.287 32.6226 176.921 33.5262 176.19 34.2576C175.459 34.9891 174.555 35.3548 173.479 35.3548ZM188.788 31.8481C188.788 34.2576 187.54 35.3979 185.668 35.3979C184.012 35.3979 183 34.3867 183 32.6441V26.147H181.129V32.7517C181.129 35.4839 182.785 37.1835 185.302 37.1835C186.873 37.1835 188.035 36.5811 188.788 35.3548V36.9038H190.659V26.147H188.788V31.8481ZM211.129 36.9038L205.513 21.8442H203.255L197.639 36.9038H199.769L200.996 33.5262H207.772L208.999 36.9038H211.129ZM204.373 24.2323L207.084 31.6545H201.684L204.373 24.2323ZM214.583 26.147H212.711V36.9038H214.583V31.2027C214.583 30.0194 214.906 29.1804 215.573 28.6426C216.24 28.1047 217.014 27.8681 217.939 27.9111V25.9533C216.326 25.9533 215.207 26.6203 214.583 27.9541V26.147ZM229.509 32.3859C229.552 32.1063 229.573 31.8266 229.573 31.5469C229.573 29.9764 229.079 28.6426 228.068 27.5454C227.078 26.4266 225.787 25.8673 224.217 25.8673C222.56 25.8673 221.205 26.4051 220.15 27.4808C219.096 28.5565 218.58 29.9119 218.58 31.5254C218.58 33.1604 219.118 34.5158 220.172 35.5915C221.248 36.6456 222.646 37.1835 224.346 37.1835C226.454 37.1835 228.024 36.366 229.079 34.7524L227.487 33.8489C226.841 34.903 225.809 35.4194 224.389 35.4194C222.345 35.4194 220.86 34.3007 220.495 32.3859H229.509ZM224.217 27.6314C225.938 27.6314 227.358 28.7071 227.68 30.7509H220.495C220.817 28.8577 222.216 27.6314 224.217 27.6314ZM236.501 29.374C236.501 31.5469 237.254 33.3756 238.76 34.903C240.266 36.4305 242.116 37.1835 244.289 37.1835C246.462 37.1835 248.312 36.4305 249.818 34.903C251.345 33.3756 252.098 31.5469 252.098 29.374C252.098 27.2011 251.345 25.351 249.818 23.845C248.312 22.3175 246.462 21.5646 244.289 21.5646C242.116 21.5646 240.266 22.3175 238.76 23.845C237.254 25.351 236.501 27.2011 236.501 29.374ZM250.098 29.374C250.098 31.0306 249.538 32.4075 248.42 33.5477C247.322 34.6664 245.946 35.2257 244.289 35.2257C242.632 35.2257 241.256 34.6664 240.137 33.5477C239.04 32.4075 238.48 31.0306 238.48 29.374C238.48 27.7175 239.04 26.3191 240.137 25.2004C241.256 24.0601 242.632 23.5008 244.289 23.5008C245.946 23.5008 247.322 24.0601 248.42 25.2004C249.538 26.3191 250.098 27.7175 250.098 29.374ZM259.667 25.8673C258.097 25.8673 256.935 26.4697 256.182 27.696V26.147H254.31V36.9038H256.182V31.2027C256.182 28.7932 257.43 27.6529 259.301 27.6529C260.958 27.6529 261.969 28.6641 261.969 30.4067V36.9038H263.841V30.2991C263.841 27.5669 262.184 25.8673 259.667 25.8673ZM284.073 36.9038L278.458 21.8442H276.199L270.584 36.9038H272.714L273.94 33.5262H280.717L281.943 36.9038H284.073ZM277.318 24.2323L280.029 31.6545H274.629L277.318 24.2323ZM300.113 36.9038V34.9676H293.294L297.145 31.1381C298.93 29.3525 299.834 27.696 299.834 26.1685C299.834 24.7701 299.36 23.6514 298.435 22.8124C297.51 21.9733 296.413 21.5646 295.144 21.5646C293.1 21.5646 291.336 22.5757 290.389 24.5334L292.067 25.5231C292.713 24.1677 293.745 23.5008 295.165 23.5008C296.65 23.5008 297.833 24.4904 297.833 26.19C297.833 27.2011 297.123 28.4274 295.703 29.8473L290.389 35.2688V36.9038H300.113ZM304.406 27.7175L304.664 23.7159H311.097V21.8442H302.857L302.298 29.6537H306.557C308.386 29.6537 309.698 30.7079 309.698 32.4505C309.698 34.1931 308.408 35.2257 306.514 35.2257C304.858 35.2257 303.653 34.4512 303.244 32.9883L301.545 33.9564C302.255 36.0433 304.212 37.1835 306.514 37.1835C307.956 37.1835 309.161 36.7532 310.172 35.9142C311.183 35.0751 311.678 33.9134 311.678 32.4505C311.678 30.966 311.183 29.8258 310.193 28.9868C309.225 28.1477 308.02 27.7175 306.601 27.7175H304.406ZM318.26 27.0505C318.11 27.0505 317.873 27.0721 317.55 27.0936L321.1 21.8442H318.82L313.979 29.0943C313.377 29.9334 313.075 30.9445 313.075 32.1063C313.075 33.5907 313.549 34.817 314.517 35.7636C315.485 36.7102 316.733 37.1835 318.26 37.1835C319.766 37.1835 321.014 36.7102 321.982 35.7636C322.95 34.817 323.445 33.5907 323.445 32.1063C323.445 30.6218 322.95 29.3955 321.982 28.4704C321.014 27.5238 319.766 27.0505 318.26 27.0505ZM318.26 28.9653C320.153 28.9653 321.466 30.2131 321.466 32.1063C321.466 33.9995 320.153 35.2688 318.26 35.2688C316.367 35.2688 315.055 33.9995 315.055 32.1063C315.055 30.2131 316.346 28.9653 318.26 28.9653ZM333.515 31.2027V29.3955H325.663V31.2027H333.515ZM345.34 29.0943C346.437 28.3414 346.975 27.2872 346.975 25.9533C346.975 24.7916 346.567 23.8235 345.749 23.0275C344.931 22.2315 343.942 21.8442 342.759 21.8442H336.735V36.9038H343.232C344.458 36.9038 345.491 36.495 346.33 35.6775C347.169 34.86 347.599 33.8489 347.599 32.6441C347.599 31.0306 346.717 29.7613 345.34 29.0943ZM342.759 23.7159C343.382 23.7159 343.899 23.9526 344.329 24.4044C344.781 24.8562 344.996 25.394 344.996 26.0179C344.996 27.3087 344.028 28.3199 342.759 28.3199H338.736V23.7159H342.759ZM338.736 35.0321V30.1485H343.232C343.899 30.1485 344.458 30.3852 344.91 30.8585C345.383 31.3318 345.62 31.9126 345.62 32.5796C345.62 33.9564 344.587 35.0321 343.232 35.0321H338.736ZM350.724 24.1892C351.412 24.1892 351.971 23.6299 351.971 22.9414C351.971 22.253 351.412 21.6721 350.724 21.6721C350.014 21.6721 349.454 22.253 349.454 22.9414C349.454 23.6299 350.014 24.1892 350.724 24.1892ZM351.649 36.9038V26.147H349.777V36.9038H351.649ZM360.356 26.147H357.495V23.1351L355.623 23.6944V26.147H353.493V27.9541H355.623V33.7843C355.623 36.452 357.086 37.3341 360.356 36.9038V35.2257C358.441 35.3118 357.495 35.4409 357.495 33.7843V27.9541H360.356V26.147ZM373.069 37.1835C374.618 37.1835 375.866 36.7962 376.834 36.0217C377.802 35.2257 378.275 34.1716 378.275 32.8592C378.275 31.9126 378.06 31.1381 377.522 30.6003C377.157 30.17 376.963 29.9334 376.361 29.6107C375.78 29.288 375.608 29.1804 374.855 28.9007C374.489 28.7501 374.231 28.6641 374.059 28.5995L373.177 28.3199C372.015 27.9541 371.197 27.5884 370.724 27.2442C370.251 26.9 370.014 26.4051 370.014 25.7382C370.014 24.3613 371.111 23.5008 372.746 23.5008C374.381 23.5008 375.522 24.2753 376.167 25.8243L377.845 24.8562C376.963 22.8769 375.134 21.5646 372.746 21.5646C371.434 21.5646 370.315 21.9518 369.39 22.7263C368.465 23.4793 368.013 24.5119 368.013 25.8243C368.013 26.9215 368.465 27.8035 368.96 28.3414C369.197 28.5995 369.562 28.8577 370.057 29.1159C370.552 29.3525 370.982 29.5461 371.305 29.6752L372.746 30.1485C374.016 30.5573 374.941 30.923 375.479 31.2887C376.016 31.6545 376.296 32.1923 376.296 32.9023C376.296 34.3007 375.177 35.2257 373.112 35.2257C371.025 35.2257 369.67 34.3222 369.089 32.4935L367.368 33.4831C368.164 35.7851 370.251 37.1835 373.069 37.1835ZM391.03 32.3859C391.073 32.1063 391.094 31.8266 391.094 31.5469C391.094 29.9764 390.599 28.6426 389.588 27.5454C388.599 26.4266 387.308 25.8673 385.737 25.8673C384.081 25.8673 382.725 26.4051 381.671 27.4808C380.617 28.5565 380.101 29.9119 380.101 31.5254C380.101 33.1604 380.638 34.5158 381.693 35.5915C382.768 36.6456 384.167 37.1835 385.866 37.1835C387.975 37.1835 389.545 36.366 390.599 34.7524L389.007 33.8489C388.362 34.903 387.329 35.4194 385.909 35.4194C383.865 35.4194 382.381 34.3007 382.015 32.3859H391.03ZM385.737 27.6314C387.458 27.6314 388.878 28.7071 389.201 30.7509H382.015C382.338 28.8577 383.736 27.6314 385.737 27.6314ZM398.28 37.1835C400.367 37.1835 402.196 36.0863 403.121 34.3867L401.529 33.4616C400.927 34.6018 399.722 35.3333 398.28 35.3333C397.205 35.3333 396.301 34.9676 395.57 34.2361C394.86 33.5046 394.494 32.6011 394.494 31.5254C394.494 30.4282 394.86 29.5246 395.57 28.7932C396.301 28.0617 397.205 27.696 398.28 27.696C399.722 27.696 400.927 28.4489 401.464 29.5892L403.035 28.6856C402.196 26.9645 400.41 25.8673 398.28 25.8673C396.667 25.8673 395.311 26.4051 394.236 27.5023C393.16 28.578 392.622 29.9119 392.622 31.5254C392.622 33.1389 393.16 34.4728 394.236 35.57C395.311 36.6456 396.667 37.1835 398.28 37.1835ZM412.412 31.8481C412.412 34.2576 411.164 35.3979 409.293 35.3979C407.636 35.3979 406.625 34.3867 406.625 32.6441V26.147H404.753V32.7517C404.753 35.4839 406.41 37.1835 408.927 37.1835C410.497 37.1835 411.659 36.5811 412.412 35.3548V36.9038H414.284V26.147H412.412V31.8481ZM419.005 26.147H417.133V36.9038H419.005V31.2027C419.005 30.0194 419.328 29.1804 419.995 28.6426C420.662 28.1047 421.436 27.8681 422.361 27.9111V25.9533C420.748 25.9533 419.629 26.6203 419.005 27.9541V26.147ZM433.931 32.3859C433.974 32.1063 433.995 31.8266 433.995 31.5469C433.995 29.9764 433.501 28.6426 432.489 27.5454C431.5 26.4266 430.209 25.8673 428.638 25.8673C426.982 25.8673 425.627 26.4051 424.572 27.4808C423.518 28.5565 423.002 29.9119 423.002 31.5254C423.002 33.1604 423.54 34.5158 424.594 35.5915C425.67 36.6456 427.068 37.1835 428.768 37.1835C430.876 37.1835 432.446 36.366 433.501 34.7524L431.909 33.8489C431.263 34.903 430.231 35.4194 428.811 35.4194C426.767 35.4194 425.282 34.3007 424.917 32.3859H433.931ZM428.638 27.6314C430.36 27.6314 431.779 28.7071 432.102 30.7509H424.917C425.239 28.8577 426.638 27.6314 428.638 27.6314ZM441.719 21.8442V36.9038H443.72V31.5254H447.183C448.582 31.5254 449.722 31.0521 450.647 30.127C451.572 29.2019 452.046 28.0402 452.046 26.6848C452.046 25.3079 451.572 24.1677 450.647 23.2426C449.722 22.3175 448.582 21.8442 447.183 21.8442H441.719ZM443.72 29.6537V23.7159H447.183C448.84 23.7159 450.066 24.9637 450.066 26.6848C450.066 27.5238 449.787 28.2338 449.249 28.8147C448.711 29.374 448.022 29.6537 447.183 29.6537H443.72ZM462.302 27.9971C461.377 26.5772 460.022 25.8673 458.236 25.8673C456.73 25.8673 455.439 26.4266 454.385 27.5238C453.331 28.621 452.793 29.9549 452.793 31.5254C452.793 33.0959 453.331 34.4512 454.385 35.5484C455.439 36.6456 456.73 37.1835 458.236 37.1835C460.022 37.1835 461.377 36.4735 462.302 35.0536V36.9038H464.174V26.147H462.302V27.9971ZM458.473 35.3763C457.397 35.3763 456.494 35.0106 455.762 34.2791C455.031 33.5262 454.665 32.6226 454.665 31.5254C454.665 30.4282 455.031 29.5246 455.762 28.7932C456.494 28.0402 457.397 27.6744 458.473 27.6744C459.57 27.6744 460.474 28.0402 461.205 28.7932C461.937 29.5246 462.302 30.4282 462.302 31.5254C462.302 32.6226 461.937 33.5262 461.205 34.2791C460.474 35.0106 459.57 35.3763 458.473 35.3763ZM475.938 27.9971C475.013 26.5772 473.658 25.8673 471.893 25.8673C470.366 25.8673 469.054 26.4051 467.999 27.5023C466.945 28.578 466.407 29.8904 466.407 31.4608C466.407 33.0313 466.945 34.3437 467.999 35.4409C469.054 36.5381 470.366 37.0759 471.893 37.0759C473.636 37.0759 474.991 36.366 475.938 34.9246V36.452C475.938 38.4958 474.583 39.7436 472.345 39.7436C470.603 39.7436 469.419 39.1412 468.838 37.9365L467.203 38.8616C468.085 40.5611 469.893 41.4862 472.302 41.4862C473.808 41.4862 475.099 41.0344 476.175 40.1524C477.25 39.2703 477.788 38.044 477.788 36.452V26.147H475.938V27.9971ZM475.938 31.4608C475.938 32.558 475.572 33.4616 474.841 34.1931C474.109 34.9246 473.206 35.2903 472.109 35.2903C471.011 35.2903 470.108 34.9246 469.376 34.1931C468.645 33.4616 468.279 32.558 468.279 31.4608C468.279 30.3852 468.645 29.4816 469.376 28.7501C470.108 28.0187 471.011 27.6529 472.109 27.6529C473.206 27.6529 474.109 28.0187 474.841 28.7501C475.572 29.4816 475.938 30.3852 475.938 31.4608ZM490.95 32.3859C490.994 32.1063 491.015 31.8266 491.015 31.5469C491.015 29.9764 490.52 28.6426 489.509 27.5454C488.519 26.4266 487.229 25.8673 485.658 25.8673C484.002 25.8673 482.646 26.4051 481.592 27.4808C480.538 28.5565 480.022 29.9119 480.022 31.5254C480.022 33.1604 480.559 34.5158 481.614 35.5915C482.689 36.6456 484.088 37.1835 485.787 37.1835C487.896 37.1835 489.466 36.366 490.52 34.7524L488.928 33.8489C488.283 34.903 487.25 35.4194 485.83 35.4194C483.786 35.4194 482.302 34.3007 481.936 32.3859H490.95ZM485.658 27.6314C487.379 27.6314 488.799 28.7071 489.122 30.7509H481.936C482.259 28.8577 483.657 27.6314 485.658 27.6314Z" fill="white"/>
<path d="M55.3138 38.205C58.5839 38.205 60.9073 36.4839 60.9073 33.5796C60.9073 30.3955 58.3472 29.5995 56.0668 28.9111C53.7218 28.2011 53.356 27.7278 53.356 27.0394C53.356 26.437 53.8939 25.8992 54.9696 25.8992C56.3464 25.8992 57.0564 26.5661 57.5727 27.6418L60.4771 25.9422C59.3799 23.7263 57.4436 22.543 54.9696 22.543C52.3664 22.543 49.9139 24.2211 49.9139 27.1255C49.9139 30.0083 52.1082 31.084 54.3457 31.7079C56.6046 32.3318 57.4652 32.6975 57.4652 33.6226C57.4652 34.2035 57.0564 34.8489 55.4214 34.8489C53.7218 34.8489 52.7967 34.0098 52.2588 32.762L49.29 34.4831C50.129 36.699 52.1513 38.205 55.3138 38.205ZM65.9647 34.5907V31.923H71.3432V28.6529H65.9647V26.1573H71.881V22.8442H62.5225V37.9038H71.9886V34.5907H65.9647ZM81.0112 38.205C83.7649 38.205 86.1745 36.8496 87.4653 34.7198L84.4964 32.9987C83.851 34.1604 82.5387 34.8489 81.0112 34.8489C78.3435 34.8489 76.6224 33.0632 76.6224 30.374C76.6224 27.6848 78.3435 25.8992 81.0112 25.8992C82.5387 25.8992 83.8295 26.5876 84.4964 27.7494L87.4653 26.0283C86.153 23.8984 83.7434 22.543 81.0112 22.543C76.4718 22.543 73.1802 25.9422 73.1802 30.374C73.1802 34.8058 76.4718 38.205 81.0112 38.205ZM94.7796 38.205C98.0927 38.205 100.588 36.2688 100.588 33.0417V22.8442H97.1461V32.7405C97.1461 33.8808 96.6083 34.8489 94.7796 34.8489C92.9509 34.8489 92.4131 33.8808 92.4131 32.7405V22.8442H88.9709V33.0417C88.9709 36.2688 91.4665 38.205 94.7796 38.205ZM110.988 37.9038H114.688L111.483 32.3748C113.139 31.5358 114.258 29.8577 114.258 28.0075C114.258 25.1462 111.956 22.8442 109.095 22.8442H103.071V37.9038H106.513V32.9557H108.148L110.988 37.9038ZM106.513 26.0713H109.095C110.041 26.0713 110.816 26.9103 110.816 28.0075C110.816 29.1047 110.041 29.9437 109.095 29.9437H106.513V26.0713ZM119.749 34.5907V31.923H125.127V28.6529H119.749V26.1573H125.665V22.8442H116.307V37.9038H125.773V34.5907H119.749Z" fill="white"/>
<path d="M19.4221 6.61456C19.9503 6.8861 20.3368 7.3477 20.7361 7.76858C23.3125 10.5246 26.327 12.5204 29.8438 13.688C31.8921 14.3668 34.0048 14.7198 36.1561 14.747C37.3542 14.7605 37.8824 15.3308 37.8824 16.5934C37.8824 21.4945 37.8824 26.3957 37.8824 31.2969C37.8695 42.8506 31.7118 52.938 21.728 57.717C21.0582 58.0428 20.3625 58.3008 19.6669 58.5859C19.2418 58.7624 18.8295 58.7488 18.4044 58.5859C8.8458 54.7573 2.95861 47.5753 0.704224 37.0805C0.317757 35.2341 0.188934 33.3605 0.188934 31.4734C0.188934 26.5043 0.188934 21.5353 0.188934 16.5662C0.188934 15.3579 0.729988 14.7741 1.86362 14.7605C7.87963 14.6248 13.0068 12.3167 17.2579 7.85004C17.683 7.40201 18.0824 6.89967 18.6363 6.61456C18.9068 6.61456 19.1645 6.61456 19.4221 6.61456ZM5.98594 32.5731C5.98594 40.1353 11.8345 46.3126 18.997 46.3262C26.1982 46.3398 32.0596 40.1624 32.0596 32.5867C32.0596 25.0245 26.2239 18.8607 19.0485 18.8335C11.8602 18.82 5.98594 24.9973 5.98594 32.5731Z" fill="white"/>
<path d="M19.01 43.2714C13.4319 43.2579 8.88449 38.4517 8.88449 32.573C8.88449 26.6672 13.4577 21.8747 19.0744 21.8882C24.6524 21.9018 29.187 26.7215 29.1741 32.6138C29.1612 38.4925 24.6009 43.285 19.01 43.2714ZM26.2756 29.4912C26.2498 29.0024 26.0566 28.5679 25.6443 28.2693C25.0131 27.8212 24.2917 27.9163 23.6862 28.5679C21.6251 30.7402 19.5639 32.8989 17.5156 35.0847C17.2064 35.4241 17.039 35.4784 16.704 35.0983C15.944 34.2294 15.1324 33.4012 14.3208 32.573C13.6767 31.9078 12.7878 31.8942 12.2081 32.5187C11.6413 33.1297 11.6413 34.0529 12.2596 34.7046C13.5092 36.0487 14.7717 37.3792 16.047 38.6961C16.6783 39.3614 17.5156 39.3614 18.1597 38.6961C20.7233 36.0079 23.2869 33.3062 25.8376 30.6044C26.121 30.3193 26.2627 29.9528 26.2756 29.4912Z" fill="white"/>
<line x1="142.044" y1="0.42395" x2="142.044" y2="60.9312" stroke="url(#paint0_radial_42_256)" stroke-width="1.3446"/>
<defs>
<radialGradient id="paint0_radial_42_256" cx="0" cy="0" r="1" gradientUnits="userSpaceOnUse" gradientTransform="translate(140.372 30.0052) rotate(90) scale(30.9259 1035)">
<stop stop-color="white"/>
<stop offset="1" stop-color="white" stop-opacity="0"/>
</radialGradient>
</defs>
</svg>
