<svg width="778" height="132" viewBox="0 0 778 132" fill="none" xmlns="http://www.w3.org/2000/svg">
<g clip-path="url(#clip0_43_1205)">
<path d="M50.6 53.2C65.2908 53.2 77.2 41.2908 77.2 26.6C77.2 11.9092 65.2908 0 50.6 0C35.9092 0 24 11.9092 24 26.6C24 41.2908 35.9092 53.2 50.6 53.2Z" fill="#4B77E9"/>
<path d="M421.6 26.6C421.6 29.3 421.2 31.9 420.5 34.3C417.1 45.2 407 53.1 395 53.1C383 53.1 372.9 45.2 369.6 34.2C368.9 31.8 368.5 29.2 368.5 26.5C368.5 23.8 368.9 21.2 369.6 18.8C372.9 8 383 0 395 0C407 0 417.1 8 420.4 18.9C421.2 21.3 421.6 23.9 421.6 26.6Z" fill="#4B77E9"/>
<path d="M766 26.6C766 41.3 754.1 53.2 739.4 53.2C727.4 53.2 717.3 45.3 714 34.3C713.3 31.9 712.9 29.3 712.9 26.6C712.9 23.9 713.3 21.3 714 18.9C717.3 8 727.4 0 739.4 0C754.1 0 766 11.9 766 26.6Z" fill="#C4C4C4"/>
<path d="M712.8 26.6C712.8 27.6 713.2 28.6 713.9 29.5H420.4C421.1 28.6 421.5 27.6 421.5 26.6C421.5 25.6 421.1 24.7 420.4 23.7H714C713.3 24.6 712.8 25.6 712.8 26.6Z" fill="#C4C4C4"/>
<path d="M420.4 23.7C421.1 24.6 421.5 25.6 421.5 26.6C421.5 27.6 421.1 28.6 420.4 29.5H66V23.8H420.4V23.7Z" fill="#4B77E9"/>
<path d="M51.4996 16.3H54.9996V36.8H50.9996V20.6L47.0996 21.7L46.0996 18.2L51.4996 16.3Z" fill="white"/>
<path d="M50.5998 47.4C62.0873 47.4 71.3998 38.0875 71.3998 26.6C71.3998 15.1125 62.0873 5.79999 50.5998 5.79999C39.1123 5.79999 29.7998 15.1125 29.7998 26.6C29.7998 38.0875 39.1123 47.4 50.5998 47.4Z" stroke="white" stroke-width="2" stroke-miterlimit="10"/>
<path d="M388.2 37V34L395.2 26.8C396.8 25.2 397.5 23.8 397.5 22.7C397.5 21.1 396.4 20 394.8 20C393.2 20 392.1 20.8 391.4 22.4L388 20.4C389.3 17.6 391.9 16.1 394.8 16.1C396.6 16.1 398.3 16.7 399.6 17.9C400.9 19 401.6 20.6 401.6 22.6C401.6 24.7 400.5 26.9 398.2 29.2L394.2 33.2H401.9V37H388.2Z" fill="white"/>
<path d="M395 47.4C406.488 47.4 415.8 38.0875 415.8 26.6C415.8 15.1125 406.488 5.79999 395 5.79999C383.513 5.79999 374.2 15.1125 374.2 26.6C374.2 38.0875 383.513 47.4 395 47.4Z" stroke="white" stroke-width="2" stroke-miterlimit="10"/>
<path d="M741.9 24.4C744.7 25.2 746.6 27.4 746.6 30.3C746.6 32.4 745.9 34 744.5 35.2C743.1 36.4 741.4 37 739.3 37C736.1 37 733.4 35.5 732.3 32.7L735.8 30.7C736.3 32.3 737.5 33.1 739.4 33.1C741.5 33.1 742.7 32 742.7 30.3C742.7 28.6 741.5 27.5 739.4 27.5H738.5L736.9 25.2L740.9 19.9H732.9V16.1H745.8V19.4L741.9 24.4Z" fill="white"/>
<path d="M739.4 47.4C750.888 47.4 760.2 38.0875 760.2 26.6C760.2 15.1125 750.888 5.79999 739.4 5.79999C727.913 5.79999 718.6 15.1125 718.6 26.6C718.6 38.0875 727.913 47.4 739.4 47.4Z" stroke="white" stroke-width="2" stroke-miterlimit="10"/>
<g clip-path="url(#clip1_43_1205)">
<path d="M711.5 26.6C711.5 27.6 712.4 28.6 714 29.5H74.6001C76.2001 28.6 77.1001 27.6 77.1001 26.6C77.1001 25.6 76.2001 24.7 74.6001 23.7H714C712.4 24.6 711.5 25.6 711.5 26.6Z" fill="#C4C4C4"/>
<path d="M50.6 53.2C65.2908 53.2 77.2 41.2908 77.2 26.6C77.2 11.9092 65.2908 0 50.6 0C35.9092 0 24 11.9092 24 26.6C24 41.2908 35.9092 53.2 50.6 53.2Z" fill="#6990E0"/>
<path d="M421.6 26.6C421.6 29.3 421.2 31.9 420.5 34.3C417.1 45.2 407 53.1 395 53.1C383 53.1 372.9 45.2 369.6 34.2C368.9 31.8 368.5 29.2 368.5 26.5C368.5 23.8 368.9 21.2 369.6 18.8C372.9 8 383 0 395 0C407 0 417.1 8 420.4 18.9C421.2 21.3 421.6 23.9 421.6 26.6Z" fill="#6990E0"/>
<path d="M766 26.6C766 41.3 754.1 53.2 739.4 53.2C727.4 53.2 717.3 45.3 714 34.3C713.3 31.9 712.9 29.3 712.9 26.6C712.9 23.9 713.3 21.3 714 18.9C717.3 8 727.4 0 739.4 0C754.1 0 766 11.9 766 26.6Z" fill="#6990E0"/>
<path d="M718.3 18.9V34.3H714C713.3 31.9 712.9 29.3 712.9 26.6C712.9 23.9 713.3 21.3 714 18.9H718.3Z" fill="#4B77E9"/>
<path d="M51.4996 16.3H54.9996V36.8H50.9996V20.6L47.0996 21.7L46.0996 18.2L51.4996 16.3Z" fill="white"/>
<path d="M50.5998 47.4C62.0873 47.4 71.3998 38.0875 71.3998 26.6C71.3998 15.1125 62.0873 5.79999 50.5998 5.79999C39.1123 5.79999 29.7998 15.1125 29.7998 26.6C29.7998 38.0875 39.1123 47.4 50.5998 47.4Z" stroke="white" stroke-width="2" stroke-miterlimit="10"/>
<path d="M388.2 37V34L395.2 26.8C396.8 25.2 397.5 23.8 397.5 22.7C397.5 21.1 396.4 20 394.8 20C393.2 20 392.1 20.8 391.4 22.4L388 20.4C389.3 17.6 391.9 16.1 394.8 16.1C396.6 16.1 398.3 16.7 399.6 17.9C400.9 19 401.6 20.6 401.6 22.6C401.6 24.7 400.5 26.9 398.2 29.2L394.2 33.2H401.9V37H388.2Z" fill="white"/>
<path d="M395 47.4C406.488 47.4 415.8 38.0875 415.8 26.6C415.8 15.1125 406.488 5.79999 395 5.79999C383.513 5.79999 374.2 15.1125 374.2 26.6C374.2 38.0875 383.513 47.4 395 47.4Z" stroke="white" stroke-width="2" stroke-miterlimit="10"/>
<path d="M741.9 24.4C744.7 25.2 746.6 27.4 746.6 30.3C746.6 32.4 745.9 34 744.5 35.2C743.1 36.4 741.4 37 739.3 37C736.1 37 733.4 35.5 732.3 32.7L735.8 30.7C736.3 32.3 737.5 33.1 739.4 33.1C741.5 33.1 742.7 32 742.7 30.3C742.7 28.6 741.5 27.5 739.4 27.5H738.5L736.9 25.2L740.9 19.9H732.9V16.1H745.8V19.4L741.9 24.4Z" fill="white"/>
<path d="M739.4 47.4C750.888 47.4 760.2 38.0875 760.2 26.6C760.2 15.1125 750.888 5.79999 739.4 5.79999C727.913 5.79999 718.6 15.1125 718.6 26.6C718.6 38.0875 727.913 47.4 739.4 47.4Z" stroke="white" stroke-width="2" stroke-miterlimit="10"/>
</g>
</g>
<path d="M1.93018 74.5V92H5.38018V86.25H8.45518C10.1302 86.25 11.5552 85.675 12.7052 84.55C13.8552 83.425 14.4302 82.025 14.4302 80.375C14.4302 78.725 13.8552 77.325 12.7052 76.2C11.5552 75.075 10.1302 74.5 8.45518 74.5H1.93018ZM5.38018 83.025V77.725H8.45518C9.93018 77.725 11.0052 78.85 11.0052 80.375C11.0052 81.875 9.93018 83.025 8.45518 83.025H5.38018ZM27.8462 87.075C27.9212 86.6 27.9712 86.175 27.9712 85.75C27.9712 83.875 27.3712 82.325 26.1712 81.05C24.9962 79.775 23.4712 79.15 21.6462 79.15C19.7212 79.15 18.1212 79.775 16.8962 81.05C15.6712 82.3 15.0462 83.875 15.0462 85.75C15.0462 87.65 15.6712 89.225 16.9212 90.475C18.1712 91.725 19.8212 92.35 21.8962 92.35C24.2962 92.35 26.1212 91.45 27.3462 89.675L24.7462 88.175C24.1212 89 23.1712 89.425 21.9462 89.425C20.0212 89.425 18.8462 88.65 18.4212 87.075H27.8462ZM18.3712 84.575C18.7462 82.975 19.9212 82.05 21.6462 82.05C23.1212 82.05 24.3712 82.875 24.7462 84.575H18.3712ZM33.4476 79.5H30.2226V92H33.4476V86.025C33.4476 84.825 33.8226 83.975 34.5976 83.45C35.3726 82.925 36.2726 82.725 37.2476 82.85V79.25C35.5476 79.25 34.0476 80.05 33.4476 81.65V79.5ZM41.7181 83.05C41.7181 82.425 42.3431 82.025 43.1681 82.025C44.0931 82.025 44.7681 82.45 45.1681 83.3L47.9181 81.8C46.9431 80.1 45.1931 79.15 43.1681 79.15C41.8181 79.15 40.6931 79.5 39.7681 80.225C38.8681 80.925 38.4181 81.9 38.4181 83.125C38.4181 85.725 40.7431 86.5 42.5931 86.975C43.8681 87.3 44.8681 87.675 44.8681 88.35C44.8681 89.075 44.2931 89.425 43.1431 89.425C41.8681 89.425 41.0681 88.875 40.6931 87.8L37.8931 89.375C38.8181 91.35 40.5681 92.35 43.1431 92.35C44.5681 92.35 45.7681 92 46.7181 91.325C47.6931 90.625 48.1681 89.625 48.1681 88.35C48.1931 85.675 45.8181 84.8 43.9931 84.425C42.7181 84.1 41.7181 83.725 41.7181 83.05ZM60.7212 90.45C61.9962 89.175 62.6462 87.6 62.6462 85.75C62.6462 83.9 61.9962 82.35 60.7212 81.075C59.4462 79.8 57.8712 79.15 56.0212 79.15C54.1712 79.15 52.5962 79.8 51.3212 81.075C50.0462 82.35 49.4212 83.9 49.4212 85.75C49.4212 87.6 50.0462 89.175 51.3212 90.45C52.5962 91.725 54.1712 92.35 56.0212 92.35C57.8712 92.35 59.4462 91.725 60.7212 90.45ZM53.5962 88.225C52.9712 87.575 52.6462 86.75 52.6462 85.75C52.6462 84.75 52.9712 83.925 53.5962 83.275C54.2462 82.625 55.0462 82.3 56.0212 82.3C56.9962 82.3 57.7962 82.625 58.4462 83.275C59.0962 83.925 59.4212 84.75 59.4212 85.75C59.4212 86.75 59.0962 87.575 58.4462 88.225C57.7962 88.875 56.9962 89.2 56.0212 89.2C55.0462 89.2 54.2462 88.875 53.5962 88.225ZM71.8649 79.15C70.1649 79.15 68.9149 79.725 68.1399 80.9V79.5H64.9149V92H68.1399V85.25C68.1399 83.175 69.2149 82.15 70.8899 82.15C72.3899 82.15 73.3649 83.05 73.3649 84.725V92H76.5899V84.325C76.5899 82.7 76.1399 81.45 75.2399 80.525C74.3649 79.6 73.2399 79.15 71.8649 79.15ZM88.8437 80.975C87.8687 79.75 86.5187 79.15 84.7687 79.15C83.0937 79.15 81.6687 79.8 80.4687 81.075C79.2937 82.35 78.6937 83.9 78.6937 85.75C78.6937 87.6 79.2937 89.175 80.4687 90.45C81.6687 91.725 83.0937 92.35 84.7687 92.35C86.5187 92.35 87.8687 91.75 88.8437 90.525V92H92.0687V79.5H88.8437V80.975ZM82.8937 88.3C82.2437 87.625 81.9187 86.775 81.9187 85.75C81.9187 84.725 82.2437 83.875 82.8937 83.225C83.5437 82.55 84.3687 82.225 85.3687 82.225C86.3687 82.225 87.1937 82.55 87.8437 83.225C88.5187 83.875 88.8437 84.725 88.8437 85.75C88.8437 86.775 88.5187 87.625 87.8437 88.3C87.1937 88.95 86.3687 89.275 85.3687 89.275C84.3687 89.275 83.5437 88.95 82.8937 88.3ZM98.2181 92V73.75H94.9931V92H98.2181ZM11.354 105.5V123H18.304C20.704 123 22.704 122.15 24.304 120.475C25.929 118.8 26.729 116.725 26.729 114.25C26.729 111.775 25.929 109.7 24.304 108.025C22.704 106.35 20.704 105.5 18.304 105.5H11.354ZM14.804 119.7V108.8H18.304C19.829 108.8 21.054 109.3 22.004 110.325C22.954 111.325 23.429 112.625 23.429 114.25C23.429 115.875 22.954 117.175 22.004 118.2C21.054 119.2 19.829 119.7 18.304 119.7H14.804ZM41.1763 118.075C41.2513 117.6 41.3013 117.175 41.3013 116.75C41.3013 114.875 40.7013 113.325 39.5013 112.05C38.3263 110.775 36.8013 110.15 34.9763 110.15C33.0513 110.15 31.4513 110.775 30.2263 112.05C29.0013 113.3 28.3763 114.875 28.3763 116.75C28.3763 118.65 29.0013 120.225 30.2513 121.475C31.5013 122.725 33.1513 123.35 35.2263 123.35C37.6263 123.35 39.4513 122.45 40.6763 120.675L38.0763 119.175C37.4513 120 36.5013 120.425 35.2763 120.425C33.3513 120.425 32.1763 119.65 31.7513 118.075H41.1763ZM31.7013 115.575C32.0763 113.975 33.2513 113.05 34.9763 113.05C36.4513 113.05 37.7013 113.875 38.0763 115.575H31.7013ZM50.3364 110.5H47.5114V107L44.2864 107.975V110.5H42.1114V113.6H44.2864V118.8C44.2864 122.225 45.9114 123.5 50.3364 123V120.075C48.4864 120.175 47.5114 120.15 47.5114 118.8V113.6H50.3364V110.5ZM61.7196 111.975C60.7446 110.75 59.3946 110.15 57.6446 110.15C55.9696 110.15 54.5446 110.8 53.3446 112.075C52.1696 113.35 51.5696 114.9 51.5696 116.75C51.5696 118.6 52.1696 120.175 53.3446 121.45C54.5446 122.725 55.9696 123.35 57.6446 123.35C59.3946 123.35 60.7446 122.75 61.7196 121.525V123H64.9446V110.5H61.7196V111.975ZM55.7696 119.3C55.1196 118.625 54.7946 117.775 54.7946 116.75C54.7946 115.725 55.1196 114.875 55.7696 114.225C56.4196 113.55 57.2446 113.225 58.2446 113.225C59.2446 113.225 60.0696 113.55 60.7196 114.225C61.3946 114.875 61.7196 115.725 61.7196 116.75C61.7196 117.775 61.3946 118.625 60.7196 119.3C60.0696 119.95 59.2446 120.275 58.2446 120.275C57.2446 120.275 56.4196 119.95 55.7696 119.3ZM69.469 109C70.569 109 71.469 108.1 71.469 107.025C71.469 105.95 70.569 105.025 69.469 105.025C68.394 105.025 67.494 105.95 67.494 107.025C67.494 108.1 68.394 109 69.469 109ZM71.094 123V110.5H67.869V123H71.094ZM77.2708 123V104.75H74.0458V123H77.2708ZM83.0999 114.05C83.0999 113.425 83.7249 113.025 84.5499 113.025C85.4749 113.025 86.1499 113.45 86.5499 114.3L89.2999 112.8C88.3249 111.1 86.5749 110.15 84.5499 110.15C83.1999 110.15 82.0749 110.5 81.1499 111.225C80.2499 111.925 79.7999 112.9 79.7999 114.125C79.7999 116.725 82.1249 117.5 83.9749 117.975C85.2499 118.3 86.2499 118.675 86.2499 119.35C86.2499 120.075 85.6749 120.425 84.5249 120.425C83.2499 120.425 82.4499 119.875 82.0749 118.8L79.2749 120.375C80.1999 122.35 81.9499 123.35 84.5249 123.35C85.9499 123.35 87.1499 123 88.0999 122.325C89.0749 121.625 89.5499 120.625 89.5499 119.35C89.5749 116.675 87.1999 115.8 85.3749 115.425C84.0999 115.1 83.0999 114.725 83.0999 114.05Z" fill="#6990E0"/>
<path d="M338.697 92.35C340.572 92.35 342.097 91.875 343.272 90.925C344.447 89.975 345.047 88.7 345.047 87.075C345.047 86.075 344.772 85.2 344.397 84.6C344.072 84 343.272 83.375 342.747 83.05C342.497 82.875 342.122 82.7 341.647 82.525C341.172 82.325 340.797 82.175 340.522 82.1L339.322 81.7C338.022 81.3 337.147 80.925 336.672 80.6C336.222 80.25 335.997 79.8 335.997 79.25C335.997 78.225 336.872 77.5 338.297 77.5C339.822 77.5 340.947 78.25 341.647 79.75L344.547 78.075C343.347 75.6 341.122 74.15 338.297 74.15C336.722 74.15 335.347 74.625 334.222 75.575C333.097 76.5 332.547 77.775 332.547 79.35C332.547 80.95 333.122 82.15 334.197 82.95C335.297 83.725 336.247 84.1 337.822 84.575C339.247 84.975 340.222 85.35 340.772 85.7C341.322 86.025 341.597 86.5 341.597 87.125C341.597 88.2 340.722 88.975 338.797 88.975C336.797 88.975 335.447 88.075 334.772 86.3L331.822 88.025C332.797 90.7 335.222 92.35 338.697 92.35ZM354.097 79.15C352.397 79.15 351.147 79.725 350.372 80.9V74.5H347.147V92H350.372V85.25C350.372 83.175 351.447 82.15 353.122 82.15C354.622 82.15 355.597 83.05 355.597 84.725V92H358.822V84.325C358.822 82.7 358.372 81.45 357.472 80.525C356.597 79.6 355.472 79.15 354.097 79.15ZM363.176 78C364.276 78 365.176 77.1 365.176 76.025C365.176 74.95 364.276 74.025 363.176 74.025C362.101 74.025 361.201 74.95 361.201 76.025C361.201 77.1 362.101 78 363.176 78ZM364.801 92V79.5H361.576V92H364.801ZM375.028 79.15C373.278 79.15 371.928 79.75 370.978 80.975V79.5H367.753V97H370.978V90.525C371.928 91.75 373.278 92.35 375.028 92.35C376.703 92.35 378.153 91.725 379.328 90.45C380.528 89.175 381.128 87.6 381.128 85.75C381.128 83.9 380.528 82.35 379.328 81.075C378.153 79.8 376.703 79.15 375.028 79.15ZM371.953 88.3C371.303 87.625 370.978 86.775 370.978 85.75C370.978 84.725 371.303 83.875 371.953 83.225C372.603 82.55 373.428 82.225 374.428 82.225C375.428 82.225 376.253 82.55 376.903 83.225C377.578 83.875 377.903 84.725 377.903 85.75C377.903 86.775 377.578 87.625 376.903 88.3C376.253 88.95 375.428 89.275 374.428 89.275C373.428 89.275 372.603 88.95 371.953 88.3ZM390.677 79.15C388.927 79.15 387.577 79.75 386.627 80.975V79.5H383.402V97H386.627V90.525C387.577 91.75 388.927 92.35 390.677 92.35C392.352 92.35 393.802 91.725 394.977 90.45C396.177 89.175 396.777 87.6 396.777 85.75C396.777 83.9 396.177 82.35 394.977 81.075C393.802 79.8 392.352 79.15 390.677 79.15ZM387.602 88.3C386.952 87.625 386.627 86.775 386.627 85.75C386.627 84.725 386.952 83.875 387.602 83.225C388.252 82.55 389.077 82.225 390.077 82.225C391.077 82.225 391.902 82.55 392.552 83.225C393.227 83.875 393.552 84.725 393.552 85.75C393.552 86.775 393.227 87.625 392.552 88.3C391.902 88.95 391.077 89.275 390.077 89.275C389.077 89.275 388.252 88.95 387.602 88.3ZM400.652 78C401.752 78 402.652 77.1 402.652 76.025C402.652 74.95 401.752 74.025 400.652 74.025C399.577 74.025 398.677 74.95 398.677 76.025C398.677 77.1 399.577 78 400.652 78ZM402.277 92V79.5H399.052V92H402.277ZM412.178 79.15C410.478 79.15 409.228 79.725 408.453 80.9V79.5H405.228V92H408.453V85.25C408.453 83.175 409.528 82.15 411.203 82.15C412.703 82.15 413.678 83.05 413.678 84.725V92H416.903V84.325C416.903 82.7 416.453 81.45 415.553 80.525C414.678 79.6 413.553 79.15 412.178 79.15ZM429.232 81.05C428.282 79.775 426.957 79.15 425.232 79.15C423.482 79.15 422.007 79.775 420.807 81.025C419.607 82.275 419.007 83.775 419.007 85.55C419.007 87.325 419.607 88.85 420.782 90.1C421.982 91.325 423.457 91.95 425.232 91.95C426.957 91.95 428.282 91.325 429.232 90.05V91.4C429.232 93.375 427.982 94.475 425.957 94.475C424.407 94.475 423.307 93.9 422.682 92.725L419.932 94.3C421.032 96.3 423.157 97.35 425.857 97.35C427.657 97.35 429.182 96.85 430.457 95.825C431.732 94.8 432.382 93.325 432.382 91.4V79.5H429.232V81.05ZM429.232 85.55C429.232 87.55 427.757 88.975 425.732 88.975C423.707 88.975 422.232 87.55 422.232 85.55C422.232 84.575 422.557 83.75 423.207 83.125C423.882 82.475 424.707 82.15 425.732 82.15C426.757 82.15 427.582 82.475 428.232 83.125C428.907 83.75 429.232 84.575 429.232 85.55ZM454.132 88.525C454.832 87.425 455.332 86.2 455.657 84.85L452.757 83.2C452.557 84.35 452.282 85.325 451.907 86.1L448.157 82C447.157 80.925 446.732 80.275 446.732 79.35C446.732 78.275 447.607 77.5 448.807 77.5C450.032 77.5 450.907 78.2 451.382 79.6L454.332 77.9C453.357 75.475 451.257 74.15 448.757 74.15C447.182 74.15 445.857 74.625 444.832 75.575C443.807 76.5 443.282 77.725 443.282 79.2C443.282 80.25 443.557 81.225 444.132 82.125C442.232 83.225 441.207 85.075 441.207 87.15C441.207 88.725 441.782 90 442.907 90.95C444.057 91.875 445.532 92.35 447.332 92.35C449.107 92.35 450.682 91.85 452.032 90.85L453.632 92.575L456.382 91L454.132 88.525ZM447.557 89.175C445.682 89.175 444.682 88.225 444.682 86.8C444.682 85.75 445.132 84.95 446.057 84.375C446.057 84.4 446.082 84.425 446.107 84.45L449.882 88.55C449.207 88.975 448.432 89.175 447.557 89.175ZM300.947 105.5V123H304.397V117.25H307.472C309.147 117.25 310.572 116.675 311.722 115.55C312.872 114.425 313.447 113.025 313.447 111.375C313.447 109.725 312.872 108.325 311.722 107.2C310.572 106.075 309.147 105.5 307.472 105.5H300.947ZM304.397 114.025V108.725H307.472C308.947 108.725 310.022 109.85 310.022 111.375C310.022 112.875 308.947 114.025 307.472 114.025H304.397ZM324.213 111.975C323.238 110.75 321.888 110.15 320.138 110.15C318.463 110.15 317.038 110.8 315.838 112.075C314.663 113.35 314.063 114.9 314.063 116.75C314.063 118.6 314.663 120.175 315.838 121.45C317.038 122.725 318.463 123.35 320.138 123.35C321.888 123.35 323.238 122.75 324.213 121.525V123H327.438V110.5H324.213V111.975ZM318.263 119.3C317.613 118.625 317.288 117.775 317.288 116.75C317.288 115.725 317.613 114.875 318.263 114.225C318.913 113.55 319.738 113.225 320.738 113.225C321.738 113.225 322.563 113.55 323.213 114.225C323.888 114.875 324.213 115.725 324.213 116.75C324.213 117.775 323.888 118.625 323.213 119.3C322.563 119.95 321.738 120.275 320.738 120.275C319.738 120.275 318.913 119.95 318.263 119.3ZM335.738 118.9L332.488 110.5H328.963L334.088 122.6C333.488 124.3 332.538 125.025 330.813 125V128C334.013 128.175 336.113 126.6 337.413 123L341.963 110.5H338.513L335.738 118.9ZM357.322 110.15C355.672 110.15 354.422 110.75 353.597 111.95C352.872 110.75 351.722 110.15 350.197 110.15C348.622 110.15 347.472 110.7 346.722 111.825V110.5H343.497V123H346.722V115.975C346.722 114.15 347.647 113.15 349.072 113.15C350.397 113.15 351.172 114.025 351.172 115.525V123H354.397V115.975C354.397 114.15 355.247 113.15 356.722 113.15C358.047 113.15 358.822 114.025 358.822 115.525V123H362.047V115.3C362.047 112.175 360.197 110.15 357.322 110.15ZM376.937 118.075C377.012 117.6 377.062 117.175 377.062 116.75C377.062 114.875 376.462 113.325 375.262 112.05C374.087 110.775 372.562 110.15 370.737 110.15C368.812 110.15 367.212 110.775 365.987 112.05C364.762 113.3 364.137 114.875 364.137 116.75C364.137 118.65 364.762 120.225 366.012 121.475C367.262 122.725 368.912 123.35 370.987 123.35C373.387 123.35 375.212 122.45 376.437 120.675L373.837 119.175C373.212 120 372.262 120.425 371.037 120.425C369.112 120.425 367.937 119.65 367.512 118.075H376.937ZM367.462 115.575C367.837 113.975 369.012 113.05 370.737 113.05C372.212 113.05 373.462 113.875 373.837 115.575H367.462ZM386.263 110.15C384.563 110.15 383.313 110.725 382.538 111.9V110.5H379.313V123H382.538V116.25C382.538 114.175 383.613 113.15 385.288 113.15C386.788 113.15 387.763 114.05 387.763 115.725V123H390.988V115.325C390.988 113.7 390.538 112.45 389.638 111.525C388.763 110.6 387.638 110.15 386.263 110.15ZM400.892 110.5H398.067V107L394.842 107.975V110.5H392.667V113.6H394.842V118.8C394.842 122.225 396.467 123.5 400.892 123V120.075C399.042 120.175 398.067 120.15 398.067 118.8V113.6H400.892V110.5ZM409.761 105.5V123H416.711C419.111 123 421.111 122.15 422.711 120.475C424.336 118.8 425.136 116.725 425.136 114.25C425.136 111.775 424.336 109.7 422.711 108.025C421.111 106.35 419.111 105.5 416.711 105.5H409.761ZM413.211 119.7V108.8H416.711C418.236 108.8 419.461 109.3 420.411 110.325C421.361 111.325 421.836 112.625 421.836 114.25C421.836 115.875 421.361 117.175 420.411 118.2C419.461 119.2 418.236 119.7 416.711 119.7H413.211ZM439.583 118.075C439.658 117.6 439.708 117.175 439.708 116.75C439.708 114.875 439.108 113.325 437.908 112.05C436.733 110.775 435.208 110.15 433.383 110.15C431.458 110.15 429.858 110.775 428.633 112.05C427.408 113.3 426.783 114.875 426.783 116.75C426.783 118.65 427.408 120.225 428.658 121.475C429.908 122.725 431.558 123.35 433.633 123.35C436.033 123.35 437.858 122.45 439.083 120.675L436.483 119.175C435.858 120 434.908 120.425 433.683 120.425C431.758 120.425 430.583 119.65 430.158 118.075H439.583ZM430.108 115.575C430.483 113.975 431.658 113.05 433.383 113.05C434.858 113.05 436.108 113.875 436.483 115.575H430.108ZM448.743 110.5H445.918V107L442.693 107.975V110.5H440.518V113.6H442.693V118.8C442.693 122.225 444.318 123.5 448.743 123V120.075C446.893 120.175 445.918 120.15 445.918 118.8V113.6H448.743V110.5ZM460.126 111.975C459.151 110.75 457.801 110.15 456.051 110.15C454.376 110.15 452.951 110.8 451.751 112.075C450.576 113.35 449.976 114.9 449.976 116.75C449.976 118.6 450.576 120.175 451.751 121.45C452.951 122.725 454.376 123.35 456.051 123.35C457.801 123.35 459.151 122.75 460.126 121.525V123H463.351V110.5H460.126V111.975ZM454.176 119.3C453.526 118.625 453.201 117.775 453.201 116.75C453.201 115.725 453.526 114.875 454.176 114.225C454.826 113.55 455.651 113.225 456.651 113.225C457.651 113.225 458.476 113.55 459.126 114.225C459.801 114.875 460.126 115.725 460.126 116.75C460.126 117.775 459.801 118.625 459.126 119.3C458.476 119.95 457.651 120.275 456.651 120.275C455.651 120.275 454.826 119.95 454.176 119.3ZM467.876 109C468.976 109 469.876 108.1 469.876 107.025C469.876 105.95 468.976 105.025 467.876 105.025C466.801 105.025 465.901 105.95 465.901 107.025C465.901 108.1 466.801 109 467.876 109ZM469.501 123V110.5H466.276V123H469.501ZM475.678 123V104.75H472.453V123H475.678ZM481.507 114.05C481.507 113.425 482.132 113.025 482.957 113.025C483.882 113.025 484.557 113.45 484.957 114.3L487.707 112.8C486.732 111.1 484.982 110.15 482.957 110.15C481.607 110.15 480.482 110.5 479.557 111.225C478.657 111.925 478.207 112.9 478.207 114.125C478.207 116.725 480.532 117.5 482.382 117.975C483.657 118.3 484.657 118.675 484.657 119.35C484.657 120.075 484.082 120.425 482.932 120.425C481.657 120.425 480.857 119.875 480.482 118.8L477.682 120.375C478.607 122.35 480.357 123.35 482.932 123.35C484.357 123.35 485.557 123 486.507 122.325C487.482 121.625 487.957 120.625 487.957 119.35C487.982 116.675 485.607 115.8 483.782 115.425C482.507 115.1 481.507 114.725 481.507 114.05Z" fill="#C4C4C4"/>
<path d="M720.683 89.725C722.458 87.95 723.333 85.8 723.333 83.25C723.333 80.7 722.458 78.55 720.683 76.8C718.908 75.025 716.758 74.15 714.233 74.15C711.708 74.15 709.558 75.025 707.783 76.8C706.033 78.55 705.158 80.7 705.158 83.25C705.158 85.8 706.033 87.95 707.783 89.725C709.558 91.475 711.708 92.35 714.233 92.35C716.758 92.35 718.908 91.475 720.683 89.725ZM710.208 87.375C709.133 86.3 708.583 84.925 708.583 83.25C708.583 81.575 709.133 80.2 710.208 79.125C711.283 78.05 712.633 77.5 714.233 77.5C715.833 77.5 717.183 78.05 718.258 79.125C719.333 80.2 719.883 81.575 719.883 83.25C719.883 84.925 719.333 86.3 718.258 87.375C717.183 88.45 715.833 88.975 714.233 88.975C712.633 88.975 711.283 88.45 710.208 87.375ZM728.833 79.5H725.608V92H728.833V86.025C728.833 84.825 729.208 83.975 729.983 83.45C730.758 82.925 731.658 82.725 732.633 82.85V79.25C730.933 79.25 729.433 80.05 728.833 81.65V79.5ZM743.53 80.975C742.58 79.75 741.23 79.15 739.48 79.15C737.805 79.15 736.355 79.8 735.155 81.075C733.98 82.35 733.38 83.9 733.38 85.75C733.38 87.6 733.98 89.175 735.155 90.45C736.355 91.725 737.805 92.35 739.48 92.35C741.23 92.35 742.58 91.75 743.53 90.525V92H746.755V74.5H743.53V80.975ZM737.58 88.3C736.93 87.625 736.605 86.775 736.605 85.75C736.605 84.725 736.93 83.875 737.58 83.225C738.255 82.55 739.08 82.225 740.08 82.225C741.08 82.225 741.905 82.55 742.555 83.225C743.205 83.875 743.53 84.725 743.53 85.75C743.53 86.775 743.205 87.625 742.555 88.3C741.905 88.95 741.08 89.275 740.08 89.275C739.08 89.275 738.255 88.95 737.58 88.3ZM761.854 87.075C761.929 86.6 761.979 86.175 761.979 85.75C761.979 83.875 761.379 82.325 760.179 81.05C759.004 79.775 757.479 79.15 755.654 79.15C753.729 79.15 752.129 79.775 750.904 81.05C749.679 82.3 749.054 83.875 749.054 85.75C749.054 87.65 749.679 89.225 750.929 90.475C752.179 91.725 753.829 92.35 755.904 92.35C758.304 92.35 760.129 91.45 761.354 89.675L758.754 88.175C758.129 89 757.179 89.425 755.954 89.425C754.029 89.425 752.854 88.65 752.429 87.075H761.854ZM752.379 84.575C752.754 82.975 753.929 82.05 755.654 82.05C757.129 82.05 758.379 82.875 758.754 84.575H752.379ZM767.456 79.5H764.231V92H767.456V86.025C767.456 84.825 767.831 83.975 768.606 83.45C769.381 82.925 770.281 82.725 771.256 82.85V79.25C769.556 79.25 768.056 80.05 767.456 81.65V79.5ZM699.745 105.5V123H703.195V117.25H706.27C707.945 117.25 709.37 116.675 710.52 115.55C711.67 114.425 712.245 113.025 712.245 111.375C712.245 109.725 711.67 108.325 710.52 107.2C709.37 106.075 707.945 105.5 706.27 105.5H699.745ZM703.195 114.025V108.725H706.27C707.745 108.725 708.82 109.85 708.82 111.375C708.82 112.875 707.745 114.025 706.27 114.025H703.195ZM717.566 123V104.75H714.341V123H717.566ZM730.017 111.975C729.042 110.75 727.692 110.15 725.942 110.15C724.267 110.15 722.842 110.8 721.642 112.075C720.467 113.35 719.867 114.9 719.867 116.75C719.867 118.6 720.467 120.175 721.642 121.45C722.842 122.725 724.267 123.35 725.942 123.35C727.692 123.35 729.042 122.75 730.017 121.525V123H733.242V110.5H730.017V111.975ZM724.067 119.3C723.417 118.625 723.092 117.775 723.092 116.75C723.092 115.725 723.417 114.875 724.067 114.225C724.717 113.55 725.542 113.225 726.542 113.225C727.542 113.225 728.367 113.55 729.017 114.225C729.692 114.875 730.017 115.725 730.017 116.75C730.017 117.775 729.692 118.625 729.017 119.3C728.367 119.95 727.542 120.275 726.542 120.275C725.542 120.275 724.717 119.95 724.067 119.3ZM742.117 123.35C744.542 123.35 746.667 122.075 747.767 120.1L744.967 118.5C744.467 119.525 743.392 120.15 742.092 120.15C741.117 120.15 740.317 119.825 739.692 119.2C739.067 118.55 738.742 117.725 738.742 116.75C738.742 114.75 740.167 113.325 742.092 113.325C743.367 113.325 744.442 113.975 744.942 115L747.717 113.375C746.692 111.4 744.542 110.15 742.117 110.15C740.242 110.15 738.667 110.775 737.392 112.05C736.142 113.325 735.517 114.875 735.517 116.75C735.517 118.625 736.142 120.175 737.392 121.45C738.667 122.725 740.242 123.35 742.117 123.35ZM761.427 118.075C761.502 117.6 761.552 117.175 761.552 116.75C761.552 114.875 760.952 113.325 759.752 112.05C758.577 110.775 757.052 110.15 755.227 110.15C753.302 110.15 751.702 110.775 750.477 112.05C749.252 113.3 748.627 114.875 748.627 116.75C748.627 118.65 749.252 120.225 750.502 121.475C751.752 122.725 753.402 123.35 755.477 123.35C757.877 123.35 759.702 122.45 760.927 120.675L758.327 119.175C757.702 120 756.752 120.425 755.527 120.425C753.602 120.425 752.427 119.65 752.002 118.075H761.427ZM751.952 115.575C752.327 113.975 753.502 113.05 755.227 113.05C756.702 113.05 757.952 113.875 758.327 115.575H751.952ZM773.181 111.975C772.231 110.75 770.881 110.15 769.131 110.15C767.456 110.15 766.006 110.8 764.806 112.075C763.631 113.35 763.031 114.9 763.031 116.75C763.031 118.6 763.631 120.175 764.806 121.45C766.006 122.725 767.456 123.35 769.131 123.35C770.881 123.35 772.231 122.75 773.181 121.525V123H776.406V105.5H773.181V111.975ZM767.231 119.3C766.581 118.625 766.256 117.775 766.256 116.75C766.256 115.725 766.581 114.875 767.231 114.225C767.906 113.55 768.731 113.225 769.731 113.225C770.731 113.225 771.556 113.55 772.206 114.225C772.856 114.875 773.181 115.725 773.181 116.75C773.181 117.775 772.856 118.625 772.206 119.3C771.556 119.95 770.731 120.275 769.731 120.275C768.731 120.275 767.906 119.95 767.231 119.3Z" fill="#C4C4C4"/>
<defs>
<clipPath id="clip0_43_1205">
<rect width="742" height="53.1" fill="white" transform="translate(24)"/>
</clipPath>
<clipPath id="clip1_43_1205">
<rect width="742" height="53.1" fill="white" transform="translate(24)"/>
</clipPath>
</defs>
</svg>
