<svg width="65" height="82" viewBox="0 0 65 82" fill="none" xmlns="http://www.w3.org/2000/svg">
<g opacity="0.5">
<path d="M64.8344 0C64.813 0.363012 64.7916 0.747378 64.7916 1.11039C64.7916 22.1651 64.7916 43.2198 64.813 64.2745C64.813 64.9578 64.6204 65.4062 64.1496 65.876C58.9287 71.0436 53.7291 76.2325 48.5509 81.4428C48.1443 81.8699 47.7164 82.0194 47.16 81.998C31.7967 81.9767 16.4119 81.9767 1.04848 81.998C0.213975 81.998 0.0641924 81.7631 0.0641924 80.9731C0.042795 54.3664 0.042795 27.7384 0.042795 1.11039C0.042795 0.747378 0.0213975 0.363012 0 0C21.6115 0 43.2229 0 64.8344 0ZM4.85723 40.9136C4.85723 52.7008 4.85723 64.5094 4.83583 76.2966C4.83583 76.9372 4.90002 77.2148 5.67033 77.2148C18.0167 77.1935 30.3844 77.1935 42.7308 77.2148C43.3727 77.2148 43.5225 77.044 43.5225 76.4247C43.5011 71.5134 43.5225 66.602 43.5011 61.6907C43.5011 60.9647 43.6937 60.8152 44.3998 60.8152C49.2356 60.8366 54.0714 60.8366 58.9287 60.8366C59.9771 60.8366 59.9771 60.8366 59.9771 59.8116C59.9771 41.7891 59.9771 23.788 59.9985 5.76549C59.9985 5.01811 59.8488 4.78322 59.057 4.78322C41.2971 4.80457 23.5372 4.80457 5.79872 4.78322C4.98561 4.78322 4.85723 5.01811 4.85723 5.76549C4.85723 17.4886 4.85723 29.1904 4.85723 40.9136ZM57.3024 65.6625C57.2383 65.6625 57.1527 65.6198 57.0457 65.6198C54.3496 65.6198 51.6535 65.6411 48.9574 65.5984C48.3583 65.5984 48.3369 65.876 48.3369 66.3244C48.3583 68.6093 48.3369 70.9155 48.3369 73.2003C48.3369 73.6701 48.3369 74.1185 48.3369 74.5883C51.354 71.5988 54.3068 68.652 57.3024 65.6625Z" fill="#063799"/>
<path d="M32.4388 31.4324C26.1479 31.4324 19.8785 31.411 13.5876 31.4537C12.8815 31.4537 12.6675 31.2615 12.7103 30.5569C12.7745 29.5532 12.7745 28.5283 12.7103 27.5246C12.6675 26.8413 12.8601 26.6064 13.5876 26.6278C16.6046 26.6705 19.6217 26.6491 22.6601 26.6491C32.1606 26.6491 41.6397 26.6705 51.1402 26.6278C51.9747 26.6278 52.21 26.8413 52.1459 27.6528C52.0817 28.6137 52.0817 29.5746 52.1459 30.5355C52.1886 31.2615 51.9747 31.4751 51.2258 31.4751C45.2131 31.4537 39.2004 31.4537 33.1663 31.4537C32.9309 31.4324 32.6741 31.4324 32.4388 31.4324Z" fill="#063799"/>
<path d="M32.4816 41.6826C26.1907 41.6826 19.9213 41.6612 13.6304 41.7039C12.8815 41.7039 12.6675 41.4904 12.7103 40.7643C12.7745 39.6753 12.7317 38.5863 12.7103 37.4759C12.7103 37.0275 12.8387 36.8139 13.3095 36.878C13.4378 36.8993 13.5662 36.878 13.716 36.878C26.1693 36.878 38.6441 36.878 51.0974 36.878C52.1245 36.878 52.1245 36.878 52.1245 37.9243C52.1245 38.9066 52.0817 39.9102 52.1459 40.8925C52.1673 41.5117 51.9747 41.7039 51.3542 41.7039C48.1232 41.6826 44.8921 41.6826 41.6397 41.6826C38.5799 41.6826 35.52 41.6826 32.4816 41.6826Z" fill="#063799"/>
<path d="M32.4176 51.9318C26.1267 51.9318 19.8572 51.9318 13.5664 51.9532C12.9244 51.9532 12.6677 51.825 12.7105 51.1204C12.7747 50.0527 12.7747 48.985 12.7105 47.9173C12.6677 47.2767 12.903 47.1059 13.5236 47.1272C18.8515 47.1486 24.1581 47.1486 29.4861 47.1486C36.7398 47.1486 43.9722 47.1486 51.2259 47.1272C51.9107 47.1272 52.1674 47.2767 52.1246 48.0027C52.0604 49.0491 52.0604 50.0954 52.1246 51.1204C52.1674 51.8037 51.9107 51.9532 51.2687 51.9532C44.9993 51.9104 38.7084 51.9318 32.4176 51.9318Z" fill="#063799"/>
<path d="M32.417 19.4962C29.2715 19.4962 26.1047 19.4749 22.9593 19.5176C22.3601 19.5176 22.1034 19.4108 22.1462 18.7489C22.2104 17.5958 22.189 16.464 22.1462 15.3109C22.1462 14.8838 22.2318 14.713 22.7239 14.713C29.1859 14.7344 35.6694 14.7344 42.1314 14.713C42.6022 14.713 42.7091 14.8838 42.7091 15.3109C42.6877 16.4854 42.6663 17.6598 42.7091 18.8343C42.7305 19.4322 42.5166 19.5389 41.9816 19.5389C38.772 19.4962 35.6052 19.4962 32.417 19.4962Z" fill="#063799"/>
<path d="M27.517 65.6198C26.0834 65.6198 24.6284 65.5984 23.1948 65.6198C22.7454 65.6198 22.5742 65.4916 22.5956 65.0432C22.617 63.8261 22.617 62.5875 22.5956 61.3704C22.5956 60.9647 22.7026 60.8152 23.1306 60.8152C26.0406 60.8365 28.9507 60.8365 31.8607 60.8152C32.2673 60.8152 32.4171 60.922 32.4171 61.349C32.3957 62.6089 32.3957 63.8474 32.4171 65.1073C32.4171 65.5557 32.2245 65.6411 31.8393 65.6411C30.4057 65.6198 28.9721 65.6198 27.517 65.6198Z" fill="#063799"/>
<path d="M15.2354 60.8152C15.8987 60.8152 16.5621 60.8366 17.2468 60.8152C17.6319 60.8152 17.8245 60.9007 17.8245 61.3491C17.8031 62.6089 17.8031 63.8475 17.8245 65.1073C17.8245 65.5558 17.6319 65.6412 17.2468 65.6412C15.9415 65.6198 14.6363 65.6198 13.3096 65.6412C12.8389 65.6412 12.7105 65.4703 12.7319 65.0219C12.7533 63.8261 12.7533 62.6303 12.7319 61.4131C12.7319 60.9647 12.8603 60.7939 13.331 60.8152C13.9516 60.8366 14.5935 60.8152 15.2354 60.8152Z" fill="#063799"/>
</g>
</svg>
