<svg width="19" height="23" viewBox="0 0 19 23" fill="none" xmlns="http://www.w3.org/2000/svg">
<path d="M8.61392 23C8.12939 22.9102 7.63318 22.8742 7.15449 22.7365C3.42419 21.6703 1.04824 19.2146 0.225118 15.3393C-0.440382 12.1948 0.388574 9.38568 2.46096 6.96589C2.55437 6.85807 2.54269 6.81016 2.44929 6.72031C2.07568 6.34896 1.71957 5.96562 1.34596 5.59427C1.25839 5.51042 1.22337 5.45651 1.33428 5.3487C1.7079 4.97734 2.06984 4.6 2.43178 4.22266C2.51934 4.13281 2.57188 4.13281 2.65361 4.22266C3.04474 4.63594 3.44754 5.03724 3.83867 5.45052C3.93791 5.55234 4.00212 5.57031 4.12471 5.48646C5.36815 4.61797 6.74001 4.0849 8.24031 3.90521C8.37457 3.88724 8.42711 3.83932 8.42127 3.69557C8.41544 3.1625 8.41544 2.63542 8.42127 2.10234C8.42127 1.94661 8.36873 1.91667 8.22863 1.91667C7.72659 1.92266 7.22454 1.91667 6.71666 1.92266C6.58823 1.92266 6.53569 1.89271 6.54153 1.74896C6.54737 1.22786 6.54737 0.700781 6.54153 0.179688C6.54153 0.0479167 6.56488 0 6.71082 0C8.46798 0.00598958 10.2251 0.00598958 11.9881 0C12.1282 0 12.1574 0.0479167 12.1574 0.179688C12.1516 0.700781 12.1516 1.22786 12.1574 1.74896C12.1574 1.89271 12.1107 1.92865 11.9823 1.92266C11.4861 1.91667 10.9899 1.92865 10.4937 1.91667C10.336 1.91667 10.2777 1.94661 10.2777 2.1263C10.2893 2.6474 10.2835 3.17448 10.2777 3.69557C10.2777 3.83932 10.3244 3.88724 10.4586 3.90521C11.9473 4.07891 13.3133 4.60599 14.5567 5.46849C14.6968 5.56432 14.7669 5.55234 14.8778 5.43255C15.2572 5.03125 15.6542 4.64193 16.0337 4.23464C16.1329 4.13281 16.1854 4.12682 16.2905 4.23464C16.6408 4.60599 16.9969 4.97135 17.3588 5.33073C17.4581 5.43255 17.4697 5.48646 17.3647 5.59427C17.0027 5.95365 16.6525 6.325 16.2905 6.68437C16.1738 6.79818 16.1621 6.86406 16.2788 6.99583C18.036 9.0263 18.8416 11.4102 18.6665 14.1174C18.3979 18.2443 15.5258 21.7182 11.6028 22.7185C11.165 22.8323 10.7213 22.9102 10.266 22.9521C10.2076 22.9581 10.1551 22.976 10.0967 22.994C9.60633 23 9.11013 23 8.61392 23ZM1.88303 13.4107C1.88303 17.6393 5.2222 21.0714 9.3378 21.0773C13.4767 21.0833 16.8276 17.6573 16.8334 13.4047C16.8451 9.2 13.4767 5.74401 9.36698 5.75C5.23388 5.75 1.88303 9.18203 1.88303 13.4107Z" fill="#FF3636"/>
<path d="M9.35481 10.5417C9.35481 9.66719 9.36065 8.79271 9.34897 7.91224C9.34313 7.69063 9.41902 7.66068 9.60583 7.66667C12.1861 7.75651 14.4686 9.81094 14.8714 12.4284C15.3618 15.5969 13.4295 18.4419 10.3647 19.0648C7.36415 19.6758 4.31686 17.5016 3.83233 14.393C3.7973 14.1474 3.77979 13.9018 3.7506 13.6562C3.72725 13.4646 3.77395 13.4047 3.97827 13.4047C5.66537 13.4167 7.34663 13.4107 9.03373 13.4107C9.40151 13.4107 9.34897 13.4586 9.34897 13.0932C9.36065 12.2487 9.35481 11.3982 9.35481 10.5417Z" fill="#FF3636"/>
</svg>
