<svg width="28" height="16" viewBox="0 0 28 16" fill="none" xmlns="http://www.w3.org/2000/svg">
<path d="M27.23 7.88507C27.1436 8.14224 26.9908 8.34226 26.8113 8.528C24.5049 11.0211 21.8861 13.0214 18.8352 14.3144C16.7481 15.2002 14.5813 15.6002 12.328 15.3573C10.5667 15.1645 8.89168 14.6144 7.29646 13.8143C4.671 12.4927 2.37123 10.6711 0.343969 8.44228C-0.114656 7.93508 -0.114656 7.48503 0.343969 6.97783C2.66368 4.44897 5.30909 2.42018 8.39982 1.11289C10.4869 0.227075 12.6537 -0.172969 14.907 0.0699148C16.6684 0.262793 18.3434 0.812855 19.9386 1.61294C22.5374 2.91309 24.804 4.71329 26.8179 6.89925C26.9908 7.09212 27.1503 7.29215 27.2367 7.54218C27.23 7.65647 27.23 7.77077 27.23 7.88507ZM13.6109 1.71295C10.5401 1.7201 8.0276 4.4204 8.03425 7.72077C8.0409 11.0211 10.5534 13.7214 13.6242 13.7143C16.695 13.7071 19.2074 11.0068 19.2008 7.70648C19.1941 4.40611 16.6817 1.71295 13.6109 1.71295Z" fill="#063799"/>
<path d="M15.3987 3.92033C14.9002 4.35609 14.5678 4.87043 14.4615 5.52765C14.1624 7.33499 15.5914 8.87087 17.2664 8.50655C17.5788 8.44225 17.519 8.57084 17.4658 8.76372C17.0404 10.3639 16.0966 11.4426 14.5944 11.8569C13.0723 12.2784 11.7363 11.8212 10.6595 10.5853C9.50967 9.25663 9.29697 7.28498 10.1012 5.67767C10.9055 4.09892 12.5539 3.21311 14.189 3.48457C14.6011 3.556 14.9999 3.68459 15.3987 3.92033Z" fill="#063799"/>
</svg>
